<svg width="60" height="40" viewBox="0 0 60 40" fill="none" xmlns="http://www.w3.org/2000/svg"><rect x=".5" y=".5" width="59" height="39" rx="2.5" fill="#fff" stroke="#D5DFFF"/><g clip-path="url(#a)"><path d="M18.456 15.964a3.945 3.945 0 0 1 5.117 2.959l2.706-.552a6.71 6.71 0 0 0-8.7-5.026l.877 2.62Z" fill="#FFCB05"/><path d="m15.263 24.74 1.83-2.07a3.942 3.942 0 0 1-1.331-2.96 3.937 3.937 0 0 1 1.331-2.955l-1.83-2.072A6.703 6.703 0 0 0 13 19.71c0 2 .876 3.799 2.263 5.03Z" fill="#00A4E0"/><path d="M23.573 20.503a3.946 3.946 0 0 1-5.117 2.953l-.876 2.623a6.71 6.71 0 0 0 8.7-5.02l-2.707-.556Z" fill="#EF4123"/><path fill="#000" d="M28.645 22.755a4.755 4.755 0 0 1-.282-.543 3.99 3.99 0 0 1-.087-3.015c.397-1.085 1.157-1.915 2.14-2.339 1.235-.53 2.599-.428 3.783.275.751.432 1.284 1.098 1.688 2.04.051.122.097.25.142.36l-7.384 3.222Zm2.466-4.296c-.877.377-1.33 1.201-1.235 2.164l3.713-1.6c-.639-.75-1.47-1-2.478-.564Zm2.94 3.481v.001l-.001.001-.077-.052a2.179 2.179 0 0 1-1.004.841c-.83.36-1.599.268-2.152-.217l-.05.077h-.001v-.002h-.001L29.821 24c.234.163.485.3.748.41 1.04.433 2.105.412 3.154-.044.759-.33 1.354-.83 1.76-1.467l-1.432-.959Zm4.558-7.157v7.843l1.219.494-.692 1.616-1.345-.56a1.521 1.521 0 0 1-.662-.558c-.149-.23-.26-.547-.26-.971v-7.864h1.74Zm3.156 5.846a2.216 2.216 0 0 1 .762-1.674l-1.25-1.395a4.08 4.08 0 0 0-1.383 3.066 4.087 4.087 0 0 0 1.379 3.07L42.52 22.3a2.216 2.216 0 0 1-.756-1.67Zm2.22 2.225a2.22 2.22 0 0 1-.704-.116l-.597 1.776a4.098 4.098 0 0 0 5.313-3.059l-1.835-.375a2.221 2.221 0 0 1-2.177 1.774Zm.006-6.321c-.441 0-.88.07-1.298.208l.592 1.778a2.22 2.22 0 0 1 2.88 1.668L48 19.814a4.097 4.097 0 0 0-4.009-3.283Z"/></g><defs><clipPath id="a"><path fill="#fff" d="M13 13h35v13.422H13z"/></clipPath></defs></svg>