<svg width="60" height="40" viewBox="0 0 60 40" fill="none" xmlns="http://www.w3.org/2000/svg">
<rect x="0.5" y="0.5" width="59" height="39" rx="2.5" fill="white" stroke="#D5DFFF"/>
<g clip-path="url(#clip0_6853_198452)">
<path fill-rule="evenodd" clip-rule="evenodd" d="M7 30H47.6762C48.3566 29.9707 49.0085 29.7205 49.5315 29.288C50.0544 28.8555 50.4196 28.2646 50.5707 27.6062L53.9961 10H13.3199C12.6395 10.0293 11.9876 10.2795 11.4646 10.712C10.9416 11.1445 10.5765 11.7354 10.4254 12.3938L7 30Z" fill="#BA1E1E"/>
<path d="M10.4883 22.9513C10.7518 21.9689 11.0153 20.8812 11.2748 19.6648C11.5344 18.4484 11.7192 17.1814 11.9159 15.8246C12.0928 15.848 12.2029 15.8675 12.2659 15.8675H12.6591C12.778 15.861 12.8962 15.8467 13.0131 15.8246C12.8833 16.3275 12.7063 16.9591 12.553 17.7739L12.5294 17.8831L12.3327 18.8851C12.4861 18.8851 12.6827 18.8851 12.9698 18.9045C13.5637 18.9279 13.9569 18.9279 14.1496 18.9279C14.5429 18.9279 15.184 18.9045 16.0845 18.8851H16.2576L16.5014 17.7155C16.5879 17.2788 16.6548 16.9084 16.6981 16.6472C16.7413 16.386 16.7649 16.0819 16.7846 15.8207C16.8934 15.8436 17.0038 15.8579 17.1149 15.8636H17.5554C17.6805 15.8573 17.8053 15.8442 17.929 15.8246C17.5554 17.1969 17.2486 18.503 17.0048 19.7233C16.761 20.9435 16.5879 22.0313 16.4778 22.9474C16.3048 22.924 16.1711 22.9007 16.0845 22.9007H15.6913C15.5723 22.9075 15.454 22.9231 15.3373 22.9474C15.471 22.4679 15.5812 22.0546 15.6677 21.6843C15.7542 21.3139 15.8211 21.0098 15.8643 20.7915L16.1514 19.4192H12.2187L11.9749 20.5888C11.9119 20.9357 11.8451 21.3061 11.7782 21.6999C11.7114 22.0936 11.6484 22.503 11.5816 22.963C11.4479 22.9396 11.3417 22.9396 11.2512 22.9162C11.1608 22.8929 11.0979 22.8968 11.031 22.8968H10.8501C10.7355 22.9341 10.6165 22.9564 10.4961 22.963L10.4883 22.9513ZM18.8768 16.1365C18.8717 16.0678 18.8829 15.9988 18.9095 15.9352C18.9361 15.8715 18.9775 15.815 19.0302 15.77C19.0702 15.7166 19.1234 15.6742 19.1847 15.6469C19.2459 15.6196 19.3133 15.6083 19.3802 15.6141C19.4514 15.6084 19.523 15.6172 19.5907 15.64C19.6583 15.6628 19.7205 15.6991 19.7734 15.7467C19.8209 15.7993 19.8569 15.8611 19.8793 15.9282C19.9016 15.9953 19.9097 16.0662 19.9032 16.1365C19.909 16.2088 19.8983 16.2814 19.8717 16.3489C19.8451 16.4164 19.8035 16.4771 19.7498 16.5264C19.7071 16.5766 19.6534 16.6164 19.5927 16.6428C19.532 16.6692 19.466 16.6813 19.3998 16.6784C19.3333 16.6847 19.2662 16.674 19.2049 16.6474C19.1437 16.6208 19.0903 16.5791 19.0498 16.5264C18.9991 16.4833 18.9589 16.4293 18.9323 16.3685C18.9058 16.3077 18.8935 16.2417 18.8964 16.1755L18.8768 16.1365ZM17.6694 22.9513C17.9526 21.8597 18.1728 20.9045 18.3262 20.0352C18.4554 19.3509 18.5434 18.6596 18.5897 17.965C18.6842 17.9836 18.7805 17.9915 18.8768 17.9884H19.4038C19.4903 17.9884 19.6004 17.965 19.6869 17.965C19.4234 18.9435 19.2032 19.8792 19.0498 20.7291C18.9093 21.4693 18.8213 22.2184 18.7863 22.9708C18.633 22.9708 18.5228 22.9279 18.4363 22.9279H18.0627C17.9312 22.9247 17.7996 22.9326 17.6694 22.9513ZM22.255 22.4913C22.5208 22.4857 22.7804 22.4107 23.0076 22.2738C23.2348 22.1369 23.4215 21.9429 23.5489 21.7116C23.9207 21.1302 24.1045 20.4501 24.0758 19.7622C24.0913 19.3901 23.9835 19.0232 23.7691 18.7174C23.6712 18.5929 23.544 18.494 23.3987 18.4295C23.2533 18.3649 23.0943 18.3366 22.9354 18.347C22.6628 18.3507 22.396 18.4245 22.1609 18.5612C21.9258 18.6979 21.7305 18.8928 21.5943 19.1268C21.2234 19.7086 21.0396 20.3884 21.0673 21.0761C21.0454 21.455 21.1535 21.8302 21.3741 22.1404C21.4862 22.259 21.6232 22.3519 21.7754 22.4125C21.9275 22.4731 22.0912 22.5 22.255 22.4913ZM19.1088 25.8012C19.4195 24.7135 19.7263 23.4932 19.9897 22.1677C20.2532 20.8422 20.4931 19.4387 20.7134 17.965C20.7999 17.965 20.8903 17.9884 20.9533 17.9884H21.3465C21.4331 17.9884 21.5196 17.965 21.61 17.965L21.4134 18.6823C21.645 18.4221 21.9188 18.2021 22.2235 18.0313C22.5184 17.8914 22.8405 17.8169 23.1674 17.8129C23.4173 17.8044 23.666 17.8506 23.8957 17.9483C24.1255 18.0461 24.3307 18.1928 24.4966 18.3782C24.8412 18.81 25.0122 19.3531 24.9764 19.9026C25.0061 20.7281 24.7258 21.5352 24.1899 22.1677C23.9513 22.4537 23.6504 22.6823 23.3098 22.8363C22.9692 22.9903 22.5978 23.0656 22.2235 23.0566C21.8982 23.0535 21.5825 22.9469 21.3229 22.7525C21.0558 22.5625 20.8628 22.2872 20.7763 21.9728L20.5561 23.1424C20.5678 23.2443 20.5598 23.3475 20.5325 23.4465C20.3358 24.3821 20.206 25.1658 20.0959 25.7856C20.0017 25.763 19.9056 25.7486 19.8088 25.7428C19.742 25.7428 19.6791 25.7194 19.6319 25.7194C19.5512 25.7166 19.4705 25.7245 19.392 25.7428C19.2952 25.7486 19.1991 25.763 19.1049 25.7856L19.1088 25.8012ZM26.3096 19.9533H28.7912C28.7912 19.8441 28.8148 19.735 28.8148 19.6687V19.4737C28.8292 19.1536 28.735 18.838 28.5474 18.5771C28.4775 18.4622 28.377 18.3687 28.257 18.3067C28.1369 18.2448 28.002 18.217 27.867 18.2262C27.6824 18.2301 27.5007 18.2727 27.3339 18.3514C27.1671 18.43 27.0191 18.5428 26.8995 18.6823C26.6082 19.0624 26.4054 19.5018 26.3057 19.9689L26.3096 19.9533ZM26.2231 20.386C26.2036 20.4941 26.1957 20.6038 26.1995 20.7135V21.041C26.1668 21.4489 26.2935 21.8537 26.5535 22.1716C26.6861 22.3072 26.8471 22.4123 27.0251 22.4797C27.2031 22.547 27.3938 22.5749 27.5838 22.5615C27.8674 22.5614 28.1468 22.4932 28.3979 22.3626C28.7006 22.2065 28.9744 22.0009 29.2081 21.7545L29.3418 21.8636L29.2081 22.1911C29.1625 22.3038 29.1256 22.4198 29.0979 22.5381C28.8371 22.7074 28.5573 22.8461 28.2642 22.9513C27.9951 23.0389 27.7137 23.0836 27.4305 23.0839C27.1309 23.1071 26.8297 23.0663 26.5474 22.964C26.2652 22.8618 26.0084 22.7006 25.7944 22.4913C25.5922 22.2719 25.436 22.0148 25.3347 21.7351C25.2334 21.4554 25.1892 21.1585 25.2045 20.8617C25.1823 20.0666 25.4552 19.2912 25.9714 18.6823C26.2113 18.3992 26.513 18.1738 26.8536 18.0232C27.1943 17.8726 27.565 17.8007 27.9378 17.8129C28.1911 17.7992 28.4444 17.841 28.6796 17.9353C28.9148 18.0297 29.1261 18.1742 29.2985 18.3587C29.6468 18.7797 29.8198 19.3166 29.7822 19.8597V20.0546C29.7822 20.1404 29.7586 20.273 29.7586 20.4016H29.5187C28.7322 20.3821 28.2013 20.3821 27.8945 20.3821H27.2338C26.7973 20.4016 26.4905 20.4016 26.2035 20.4016L26.2231 20.386ZM29.7272 22.9513C29.9671 21.9923 30.1676 21.08 30.321 20.2223C30.4563 19.4741 30.5508 18.7193 30.6042 17.9611C30.691 17.9771 30.7794 17.9836 30.8677 17.9806H31.2845C31.375 17.9806 31.4379 17.9611 31.5284 17.9611C31.4851 18.1131 31.4379 18.2652 31.3946 18.4406C31.3524 18.6061 31.3209 18.7741 31.3003 18.9435C31.4891 18.6336 31.7345 18.3613 32.0239 18.1404C32.2345 17.9664 32.4972 17.8664 32.7711 17.8558H32.9009C32.9481 17.8558 32.9913 17.8792 33.0582 17.8792C33.0086 18.0213 32.9717 18.1674 32.9481 18.3159C32.9207 18.4586 32.905 18.6033 32.9009 18.7486C32.8076 18.7276 32.713 18.7133 32.6177 18.7057C32.5538 18.6877 32.4875 18.6799 32.4211 18.6823C31.957 18.6823 31.5874 18.9903 31.3435 19.5751C31.0997 20.1599 30.8834 21.2827 30.6868 22.9513C30.5766 22.9279 30.4665 22.9279 30.38 22.9045C30.2935 22.8812 30.2227 22.8851 30.1598 22.8851H30.0064C29.9828 22.9279 29.8727 22.9279 29.7193 22.9513H29.7272ZM36.5308 22.6667C36.2949 22.7945 36.0456 22.8964 35.7875 22.9708C35.5219 23.0412 35.2484 23.0779 34.9734 23.08C34.6775 23.0941 34.3818 23.0474 34.105 22.9427C33.8282 22.838 33.5762 22.6777 33.3649 22.4718C33.1557 22.26 32.9929 22.0077 32.8866 21.7306C32.7804 21.4536 32.733 21.1577 32.7475 20.8617C32.7238 20.0651 33.0161 19.2911 33.5616 18.7057C33.8123 18.4221 34.1232 18.1971 34.472 18.0468C34.8208 17.8965 35.1989 17.8246 35.5791 17.8363C35.8969 17.8358 36.2137 17.8724 36.5229 17.9455C36.8003 18.0028 37.0662 18.1056 37.3095 18.2496C37.2364 18.3878 37.1771 18.5327 37.1325 18.6823C37.0892 18.8383 37.046 18.9669 37.0027 19.119H36.8336C36.7344 18.8627 36.5673 18.6378 36.3499 18.4679C36.1491 18.3115 35.9013 18.2264 35.6459 18.2262C35.371 18.231 35.1019 18.3051 34.8638 18.4415C34.6258 18.5779 34.4266 18.7722 34.2852 19.0059C33.9019 19.5714 33.7105 20.2433 33.7386 20.924C33.706 21.359 33.83 21.7914 34.0886 22.1443C34.2161 22.2892 34.375 22.4037 34.5534 22.4793C34.7318 22.5549 34.9251 22.5897 35.1189 22.581C35.4166 22.5832 35.7105 22.515 35.9763 22.3821C36.2322 22.2593 36.4567 22.0807 36.633 21.8597L36.7864 21.9689L36.6566 22.2964C36.5898 22.4484 36.5701 22.5576 36.5229 22.6667H36.5308ZM39.7163 22.2769C39.5132 22.514 39.2679 22.7122 38.9927 22.8617C38.7515 22.992 38.4808 23.0591 38.2061 23.0566C38.035 23.0673 37.8635 23.0443 37.7014 22.9887C37.5394 22.9332 37.3901 22.8462 37.2623 22.733C37.1461 22.6152 37.0548 22.4755 36.994 22.3222C36.9333 22.1688 36.9041 22.0049 36.9083 21.8402C36.8958 21.6323 36.9311 21.4242 37.0115 21.2318C37.0918 21.0393 37.2153 20.8674 37.3724 20.7291C37.8586 20.3967 38.4184 20.1854 39.0045 20.1131L39.8618 19.9416C39.9311 19.9274 39.9956 19.896 40.0493 19.8503C40.1029 19.8046 40.144 19.7461 40.1686 19.6804C40.2397 19.4845 40.2692 19.2761 40.2551 19.0683C40.2595 18.9531 40.2405 18.8382 40.1993 18.7303C40.1581 18.6225 40.0955 18.524 40.0152 18.4406C39.9295 18.3632 39.8288 18.304 39.7193 18.2664C39.6098 18.2289 39.4937 18.2139 39.3781 18.2223C39.0916 18.2091 38.8082 18.2855 38.5679 18.4406C38.3251 18.5816 38.1326 18.7942 38.0174 19.0488L37.8404 19.0254C37.864 18.9162 37.8876 18.8305 37.9072 18.7213C37.9268 18.6291 37.9347 18.5348 37.9308 18.4406V18.2496C38.1793 18.1055 38.4431 17.9892 38.7174 17.9026C38.9894 17.831 39.2696 17.7943 39.5511 17.7934C39.9704 17.7621 40.3875 17.8765 40.7309 18.117C40.8645 18.233 40.97 18.3774 41.0394 18.5394C41.1089 18.7014 41.1406 18.8769 41.1321 19.0527C41.134 19.1985 41.1274 19.3443 41.1124 19.4893C41.0888 19.6648 41.0652 19.8597 41.022 20.0546L40.6719 21.8168C40.6484 21.9065 40.6484 21.9689 40.6287 22.0352C40.609 22.1014 40.6051 22.1677 40.6051 22.2301C40.5988 22.2708 40.6036 22.3124 40.6188 22.3508C40.6339 22.3891 40.6591 22.4228 40.6916 22.4484C40.7528 22.5015 40.8306 22.5318 40.9118 22.5342C40.9573 22.5374 41.0029 22.5307 41.0456 22.5147C41.1121 22.5054 41.1778 22.491 41.2422 22.4718L41.3759 22.733C41.2292 22.8153 41.0735 22.8807 40.9118 22.9279C40.7703 22.9708 40.6233 22.9932 40.4753 22.9942C40.3784 22.9989 40.2815 22.9836 40.1909 22.9494C40.1002 22.9152 40.0176 22.8627 39.9483 22.7954C39.8757 22.7301 39.8184 22.6499 39.7803 22.5603C39.7423 22.4707 39.7245 22.374 39.7281 22.2769H39.7163ZM40.0466 20.3276L39.1657 20.503C38.779 20.572 38.4147 20.7325 38.1039 20.9708C37.9977 21.0669 37.9135 21.1846 37.8572 21.3157C37.8009 21.4469 37.7737 21.5885 37.7775 21.7311C37.7704 21.9392 37.8451 22.1418 37.9859 22.2964C38.0511 22.3702 38.1325 22.4282 38.2239 22.4661C38.3152 22.5039 38.4141 22.5206 38.5129 22.5147C38.8211 22.5069 39.1166 22.3908 39.3466 22.1872C39.5834 22.012 39.7471 21.7567 39.8067 21.4699L40.0506 20.3003L40.0466 20.3276ZM41.4703 22.963C41.7141 22.004 41.9108 21.0917 42.0641 20.234C42.2006 19.4859 42.2964 18.7311 42.3512 17.9728C42.438 17.989 42.5264 17.9956 42.6147 17.9923H43.0316C43.1181 17.9923 43.185 17.9728 43.2715 17.9728C43.2282 18.1248 43.185 18.2769 43.1417 18.4523C43.0968 18.6134 43.064 18.7776 43.0434 18.9435C43.2335 18.6334 43.4802 18.361 43.7709 18.1404C43.9802 17.9667 44.2415 17.8667 44.5142 17.8558H44.6479C44.6912 17.8558 44.7345 17.8792 44.8013 17.8792C44.7554 18.0223 44.7186 18.1682 44.6912 18.3159C44.6652 18.4587 44.6507 18.6034 44.6479 18.7486C44.5533 18.7279 44.4574 18.7135 44.3608 18.7057C44.2969 18.6877 44.2306 18.6799 44.1642 18.6823C43.7041 18.6823 43.3305 18.9903 43.0866 19.5751C42.8428 20.1599 42.6265 21.2827 42.4299 22.9513C42.3198 22.9279 42.2096 22.9279 42.1231 22.9045C42.0366 22.8812 41.9697 22.8851 41.9029 22.8851H41.7495C41.7259 22.9279 41.6158 22.9279 41.4624 22.9513L41.4703 22.963ZM48.1559 22.2418C47.9108 22.5063 47.6222 22.7278 47.3025 22.8968C47.0051 23.0265 46.6836 23.0929 46.3587 23.0917C46.1137 23.0978 45.8705 23.0503 45.6462 22.9526C45.4218 22.8548 45.222 22.7093 45.0609 22.5264C44.7178 22.0936 44.5459 21.5516 44.5771 21.002C44.5595 20.1854 44.8387 19.3898 45.3637 18.7603C45.591 18.4761 45.8813 18.2478 46.2121 18.0929C46.5429 17.9381 46.9053 17.8609 47.2711 17.8675C47.6024 17.8581 47.9276 17.9583 48.1953 18.1521C48.4524 18.3542 48.6395 18.6309 48.7301 18.9435L48.97 17.7934C49.0801 17.271 49.1706 16.811 49.2335 16.3782C49.2964 15.9455 49.3908 15.5517 49.4341 15.158C49.5272 15.1792 49.6219 15.1935 49.7172 15.2008C49.7841 15.2008 49.8509 15.2242 49.8942 15.2242C49.9749 15.2272 50.0555 15.2193 50.1341 15.2008C50.2375 15.197 50.3403 15.1826 50.4408 15.158C50.0908 16.4211 49.7841 17.7272 49.497 19.0332C49.2099 20.3392 48.9975 21.6726 48.8166 22.9708C48.7301 22.9708 48.6436 22.9708 48.5767 22.9708H48.1599C48.0733 22.9708 47.9829 22.9708 47.8964 22.9708L48.1363 22.2301L48.1559 22.2418ZM47.3694 18.4367C47.1003 18.4417 46.8372 18.5163 46.6061 18.6531C46.3751 18.7898 46.184 18.984 46.0519 19.2164C45.684 19.7995 45.5005 20.4784 45.5249 21.1658C45.497 21.5364 45.5984 21.9052 45.812 22.2106C45.9128 22.3303 46.0412 22.4244 46.1863 22.4847C46.3313 22.5451 46.4889 22.5701 46.6458 22.5576C46.9209 22.5538 47.1905 22.4802 47.4287 22.3437C47.667 22.2072 47.8659 22.0123 48.0065 21.7778C48.3746 21.1948 48.5582 20.5159 48.5335 19.8285C48.5595 19.4492 48.4448 19.0734 48.211 18.772C48.1033 18.6544 47.9703 18.5622 47.822 18.5022C47.6736 18.4421 47.5136 18.4158 47.3536 18.425L47.3694 18.4367Z" fill="white"/>
</g>
<defs>
<clipPath id="clip0_6853_198452">
<rect width="47" height="20" fill="white" transform="translate(7 10)"/>
</clipPath>
</defs>
</svg>
