<svg width="60" height="40" viewBox="0 0 60 40" fill="none" xmlns="http://www.w3.org/2000/svg">
<rect x="0.5" y="0.5" width="59" height="39" rx="2.5" fill="white" stroke="#D5DFFF"/>
<g clip-path="url(#clip0_180_642)">
<path d="M26.3294 27.2714C26.2595 27.2711 26.1926 27.2431 26.1432 27.1935C26.0938 27.1439 26.066 27.0766 26.0657 27.0064V18.4036C26.0669 17.5735 26.3956 16.7778 26.9798 16.191C27.564 15.6042 28.3559 15.2741 29.1819 15.2732H31.7101C32.5338 15.2762 33.3229 15.6068 33.9047 16.1928C34.4866 16.7788 34.8139 17.5724 34.8151 18.4002V20.2304C34.8142 21.0606 34.4856 21.8566 33.9014 22.4437C33.3172 23.0308 32.5251 23.361 31.6989 23.3619H28.1282C28.0582 23.3619 27.9912 23.3339 27.9417 23.2842C27.8923 23.2346 27.8645 23.1672 27.8645 23.0969C27.8645 23.0266 27.8923 22.9592 27.9417 22.9095C27.9912 22.8598 28.0582 22.8319 28.1282 22.8319H31.6989C32.3852 22.831 33.0431 22.5566 33.5284 22.0689C34.0137 21.5812 34.2868 20.9201 34.2877 20.2304V18.4036C34.2859 17.7163 34.0134 17.0576 33.5298 16.5716C33.0461 16.0856 32.3907 15.8118 31.7067 15.81H29.1785C28.4924 15.8112 27.8347 16.0857 27.3497 16.5733C26.8646 17.061 26.5917 17.722 26.5908 18.4115V27.0143C26.5888 27.0828 26.5604 27.1479 26.5117 27.1958C26.4629 27.2438 26.3976 27.2709 26.3294 27.2714ZM37.5239 23.4036C37.454 23.4036 37.3869 23.3757 37.3375 23.326C37.288 23.2763 37.2602 23.2089 37.2602 23.1386V16.711C37.2602 16.4692 37.1647 16.2374 36.9947 16.0663C36.8247 15.8953 36.5941 15.799 36.3535 15.7987H35.2583C35.2223 15.8011 35.1862 15.796 35.1523 15.7838C35.1183 15.7716 35.0872 15.7525 35.0608 15.7277C35.0345 15.7029 35.0135 15.6729 34.9992 15.6397C34.9848 15.6064 34.9774 15.5705 34.9774 15.5343C34.9774 15.498 34.9848 15.4622 34.9992 15.4289C35.0135 15.3956 35.0345 15.3657 35.0608 15.3409C35.0872 15.3161 35.1183 15.297 35.1523 15.2848C35.1862 15.2726 35.2223 15.2675 35.2583 15.2699H36.3547C36.7349 15.2701 37.0995 15.4221 37.3684 15.6923C37.6373 15.9625 37.7885 16.3289 37.7888 16.711V23.1386C37.7888 23.1735 37.7819 23.208 37.7686 23.2403C37.7553 23.2725 37.7357 23.3018 37.7111 23.3264C37.6865 23.351 37.6573 23.3705 37.6252 23.3837C37.5931 23.397 37.5587 23.4037 37.5239 23.4036Z" fill="#939598"/>
<path d="M37.2894 14.5415L36.7923 14.0408C36.7626 14.0114 36.739 13.9762 36.7229 13.9375C36.7068 13.8988 36.6985 13.8573 36.6985 13.8153C36.6985 13.7733 36.7068 13.7318 36.7229 13.6931C36.739 13.6544 36.7626 13.6192 36.7923 13.5898L37.2894 13.0913C37.3186 13.0612 37.3535 13.0372 37.392 13.0209C37.4306 13.0045 37.472 12.9961 37.5139 12.9961C37.5557 12.9961 37.5971 13.0045 37.6357 13.0209C37.6742 13.0372 37.7091 13.0612 37.7383 13.0913L38.2354 13.5898C38.2651 13.6192 38.2887 13.6544 38.3048 13.6931C38.3209 13.7318 38.3292 13.7733 38.3292 13.8153C38.3292 13.8573 38.3209 13.8988 38.3048 13.9375C38.2887 13.9762 38.2651 14.0114 38.2354 14.0408L37.7383 14.5415C37.709 14.5714 37.674 14.5951 37.6355 14.6113C37.597 14.6275 37.5556 14.6358 37.5139 14.6358C37.4721 14.6358 37.4308 14.6275 37.3922 14.6113C37.3537 14.5951 37.3188 14.5714 37.2894 14.5415Z" fill="#32BCAD"/>
<path d="M40.7154 23.3474H39.628C39.5581 23.3474 39.491 23.3195 39.4415 23.2698C39.3921 23.2201 39.3643 23.1527 39.3643 23.0824C39.3643 23.0121 39.3921 22.9447 39.4415 22.895C39.491 22.8453 39.5581 22.8174 39.628 22.8174H40.7154C40.9577 22.818 41.1978 22.7704 41.4218 22.6773C41.6458 22.5842 41.8493 22.4475 42.0204 22.275L44.5632 19.7186C44.666 19.6153 44.788 19.5333 44.9223 19.4774C45.0566 19.4214 45.2005 19.3927 45.3459 19.3927C45.4913 19.3927 45.6352 19.4214 45.7695 19.4774C45.9038 19.5333 46.0258 19.6153 46.1286 19.7186L48.6624 22.2649C48.8332 22.4381 49.0365 22.5755 49.2605 22.6692C49.4845 22.7629 49.7248 22.811 49.9675 22.8107H50.8562C50.9262 22.8107 50.9932 22.8386 51.0427 22.8883C51.0921 22.938 51.1199 23.0054 51.1199 23.0757C51.1199 23.1459 51.0921 23.2133 51.0427 23.263C50.9932 23.3127 50.9262 23.3407 50.8562 23.3407H49.972C49.6603 23.3416 49.3515 23.2803 49.0636 23.1605C48.7756 23.0407 48.5142 22.8647 48.2944 22.6426L45.7605 20.0964C45.7068 20.042 45.6429 19.9989 45.5725 19.9694C45.5021 19.94 45.4266 19.9248 45.3504 19.9248C45.2741 19.9248 45.1986 19.94 45.1283 19.9694C45.0579 19.9989 44.994 20.042 44.9402 20.0964L42.3975 22.6517C42.1769 22.8738 41.9147 23.0498 41.6259 23.1692C41.3371 23.2887 41.0276 23.3492 40.7154 23.3474ZM45.3465 19.2202C45.2005 19.2212 45.0559 19.1928 44.921 19.1369C44.7861 19.0809 44.6637 18.9984 44.561 18.8943L42.0182 16.3391C41.8472 16.1663 41.6438 16.0292 41.4198 15.9359C41.1958 15.8426 40.9556 15.7949 40.7131 15.7955H39.6257C39.5897 15.7979 39.5536 15.7928 39.5197 15.7806C39.4857 15.7684 39.4546 15.7493 39.4283 15.7245C39.4019 15.6997 39.3809 15.6698 39.3666 15.6365C39.3523 15.6032 39.3448 15.5674 39.3448 15.5311C39.3448 15.4949 39.3523 15.459 39.3666 15.4257C39.3809 15.3925 39.4019 15.3625 39.4283 15.3377C39.4546 15.3129 39.4857 15.2938 39.5197 15.2816C39.5536 15.2694 39.5897 15.2643 39.6257 15.2667H40.7131C41.0248 15.2658 41.3335 15.327 41.6215 15.4468C41.9095 15.5666 42.1709 15.7426 42.3907 15.9647L44.9358 18.5256C45.0447 18.6346 45.1922 18.6958 45.3459 18.6958C45.4996 18.6958 45.6471 18.6346 45.756 18.5256L48.2899 15.9794C48.5097 15.7573 48.7711 15.5813 49.0591 15.4615C49.347 15.3416 49.6558 15.2804 49.9675 15.2813H50.8562C50.8908 15.2813 50.9251 15.2882 50.9571 15.3015C50.9891 15.3148 51.0182 15.3343 51.0427 15.359C51.0672 15.3836 51.0866 15.4128 51.0998 15.4449C51.1131 15.4771 51.1199 15.5115 51.1199 15.5463C51.1199 15.5811 51.1131 15.6156 51.0998 15.6477C51.0866 15.6799 51.0672 15.7091 51.0427 15.7337C51.0182 15.7583 50.9891 15.7778 50.9571 15.7912C50.9251 15.8045 50.8908 15.8113 50.8562 15.8113H49.972C49.7296 15.8107 49.4895 15.8584 49.2655 15.9515C49.0415 16.0446 48.8381 16.1813 48.6669 16.3537L46.1331 18.9C46.0298 19.0033 45.907 19.0848 45.7719 19.1398C45.6368 19.1948 45.4922 19.2221 45.3465 19.2202Z" fill="#939598"/>
<path d="M19.8467 24.7151C19.5784 24.7158 19.3126 24.6631 19.0647 24.5599C18.8168 24.4568 18.5917 24.3052 18.4025 24.114L16.3164 22.0211C16.2427 21.9499 16.1444 21.9102 16.0421 21.9102C15.9398 21.9102 15.8415 21.9499 15.7677 22.0211L13.6738 24.1253C13.4847 24.3167 13.2596 24.4684 13.0117 24.5718C12.7638 24.6752 12.498 24.7281 12.2296 24.7275H11.8177L14.4604 27.3831C14.8568 27.781 15.3942 28.0046 15.9546 28.0046C16.5149 28.0046 17.0523 27.781 17.4487 27.3831L20.0981 24.7196L19.8467 24.7151Z" fill="#32BCAD"/>
<path d="M12.2296 17.2998C12.4979 17.2991 12.7637 17.3518 13.0116 17.455C13.2595 17.5582 13.4845 17.7097 13.6738 17.9009L15.7677 20.0051C15.8405 20.0781 15.9392 20.1192 16.0421 20.1192C16.1449 20.1192 16.2436 20.0781 16.3164 20.0051L18.4025 17.9088C18.5917 17.7176 18.8168 17.566 19.0647 17.4629C19.3126 17.3597 19.5784 17.307 19.8467 17.3077H20.0981L17.4487 14.6454C17.2525 14.448 17.0196 14.2915 16.7632 14.1847C16.5069 14.0779 16.2321 14.0229 15.9545 14.0229C15.677 14.0229 15.4022 14.0779 15.1458 14.1847C14.8894 14.2915 14.6565 14.448 14.4604 14.6454L11.8188 17.2998H12.2296Z" fill="#32BCAD"/>
<path d="M22.2907 19.5098L20.6894 17.9007C20.6537 17.9153 20.6156 17.923 20.5772 17.9232H19.85C19.4712 17.9243 19.1081 18.0759 18.8401 18.345L16.7506 20.4424C16.5627 20.6309 16.3081 20.7368 16.0425 20.7368C15.777 20.7368 15.5224 20.6309 15.3345 20.4424L13.2405 18.3382C12.972 18.0701 12.6092 17.919 12.2306 17.9176H11.3329C11.2944 17.9177 11.2562 17.91 11.2207 17.895L9.61376 19.5109C9.41741 19.708 9.26164 19.9421 9.15536 20.1997C9.04909 20.4574 8.99438 20.7335 8.99438 21.0124C8.99438 21.2913 9.04909 21.5675 9.15536 21.8251C9.26164 22.0827 9.41741 22.3168 9.61376 22.5139L11.2207 24.1298C11.2562 24.1148 11.2944 24.1072 11.3329 24.1072H12.2306C12.6092 24.1058 12.972 23.9547 13.2405 23.6866L15.3345 21.5824C15.5253 21.3995 15.7788 21.2974 16.0425 21.2974C16.3063 21.2974 16.5598 21.3995 16.7506 21.5824L18.8367 23.6787C19.105 23.9473 19.4679 24.0989 19.8466 24.1005H20.5738C20.6123 24.1007 20.6504 24.1084 20.686 24.123L22.2873 22.5139C22.6833 22.1155 22.9058 21.5755 22.9058 21.0124C22.9058 20.4493 22.6833 19.9093 22.2873 19.5109L22.2907 19.5098Z" fill="#32BCAD"/>
<path d="M28.503 26.2746C28.3707 26.2809 28.2395 26.3009 28.1114 26.3343V26.8587C28.2093 26.8936 28.3126 26.9112 28.4166 26.9106C28.678 26.9106 28.8026 26.8215 28.8026 26.5903C28.8026 26.3591 28.7005 26.2746 28.503 26.2746ZM28.0227 27.2489V26.2114H28.0945L28.1024 26.2565C28.236 26.2211 28.3729 26.1992 28.5108 26.1911C28.6062 26.1846 28.7008 26.2122 28.7779 26.2689C28.8205 26.3101 28.8533 26.3603 28.8739 26.416C28.8945 26.4716 28.9024 26.5312 28.8969 26.5903C28.9027 26.6568 28.8901 26.7237 28.8603 26.7834C28.8306 26.8431 28.785 26.8934 28.7285 26.9286C28.6344 26.9753 28.5305 26.9985 28.4256 26.9963C28.319 26.9956 28.2132 26.9793 28.1114 26.9478V27.2534L28.0227 27.2489Z" fill="#939598"/>
<path d="M29.5532 26.2712C29.2918 26.2712 29.1751 26.3547 29.1751 26.5859C29.1751 26.817 29.2873 26.9106 29.5532 26.9106C29.8192 26.9106 29.9303 26.8294 29.9303 26.5983C29.9303 26.3671 29.8181 26.2712 29.5532 26.2712ZM29.8899 26.9106C29.7888 26.9722 29.6711 27.0005 29.5532 26.9918C29.4354 26.9999 29.3179 26.9716 29.2166 26.9106C29.1694 26.873 29.1323 26.8241 29.1088 26.7683C29.0853 26.7126 29.076 26.6518 29.0819 26.5915C29.0764 26.5311 29.0859 26.4703 29.1094 26.4144C29.1328 26.3586 29.1697 26.3094 29.2166 26.2712C29.3211 26.2187 29.4364 26.1914 29.5532 26.1914C29.6701 26.1914 29.7854 26.2187 29.8899 26.2712C29.9325 26.3128 29.9663 26.3625 29.9895 26.4174C30.0126 26.4723 30.0245 26.5313 30.0245 26.5909C30.0245 26.6506 30.0126 26.7096 29.9895 26.7645C29.9663 26.8194 29.9325 26.8691 29.8899 26.9106Z" fill="#939598"/>
<path d="M31.1277 26.9703L30.836 26.3411H30.8303L30.5431 26.9703H30.4645L30.1537 26.2114H30.2502L30.5094 26.8485H30.515L30.7956 26.2114H30.8764L31.1659 26.8485H31.1715L31.424 26.2114H31.5182L31.2074 26.9703H31.1277Z" fill="#939598"/>
<path d="M32.0815 26.2701C31.8402 26.2701 31.7572 26.3829 31.7449 26.5351H32.4237C32.4159 26.3626 32.3284 26.2701 32.0871 26.2701H32.0815ZM32.0815 26.9918C31.97 27.0033 31.8582 26.9732 31.7673 26.9072C31.6878 26.8186 31.6456 26.7023 31.6498 26.583C31.654 26.4637 31.7042 26.3507 31.7897 26.2679C31.8776 26.2127 31.9802 26.1859 32.0837 26.1912C32.1897 26.1847 32.2953 26.2102 32.3867 26.2645C32.4989 26.3378 32.5169 26.4675 32.5169 26.6141H31.7415C31.7415 26.7708 31.7953 26.9084 32.0882 26.9084C32.2194 26.9051 32.35 26.8908 32.4787 26.8655V26.9445C32.3479 26.9717 32.215 26.9876 32.0815 26.9918Z" fill="#939598"/>
<path d="M32.7671 26.9704V26.2115H32.8389L32.8468 26.2566C32.9679 26.2167 33.0941 26.1947 33.2216 26.1912H33.2328V26.2746H33.2115C33.0907 26.2773 32.9709 26.2974 32.8557 26.3344V26.9704H32.7671Z" fill="#939598"/>
<path d="M33.7445 26.2701C33.5022 26.2701 33.4202 26.3829 33.4079 26.5351H34.0812C34.0745 26.3626 33.9858 26.2701 33.7445 26.2701ZM33.7445 26.9918C33.6333 27.0038 33.5217 26.9737 33.4315 26.9073C33.3511 26.819 33.3085 26.7025 33.3127 26.583C33.3169 26.4634 33.3676 26.3503 33.4539 26.2679C33.5417 26.2124 33.6444 26.1856 33.7479 26.1912C33.8536 26.1846 33.9588 26.2101 34.0498 26.2645C34.162 26.3378 34.1799 26.4675 34.1799 26.6141H33.4057C33.4057 26.7708 33.4595 26.9084 33.7524 26.9084C33.8812 26.9063 34.0095 26.8934 34.1362 26.8701V26.949C34.005 26.9763 33.8717 26.9922 33.7378 26.9964L33.7445 26.9918Z" fill="#939598"/>
<path d="M35.1461 26.3232C35.0481 26.2883 34.9448 26.2708 34.8409 26.2714C34.5794 26.2714 34.456 26.3605 34.456 26.5916C34.456 26.8228 34.5569 26.9074 34.7544 26.9074C34.8867 26.9015 35.0179 26.8818 35.1461 26.8487V26.3232ZM35.1629 26.9705L35.1551 26.9254C35.0218 26.9611 34.8854 26.9834 34.7477 26.9919C34.6943 26.999 34.6399 26.9934 34.589 26.9755C34.5381 26.9577 34.4921 26.9282 34.4546 26.8893C34.4171 26.8504 34.3892 26.8032 34.373 26.7515C34.3569 26.6998 34.353 26.6451 34.3617 26.5916C34.3564 26.5262 34.3692 26.4607 34.3987 26.4021C34.4282 26.3436 34.4733 26.2945 34.5289 26.2601C34.6233 26.2119 34.7283 26.1882 34.8341 26.1913C34.9398 26.1928 35.0447 26.2087 35.1461 26.2387V25.8914H35.2347V26.9705H35.1629Z" fill="#939598"/>
<path d="M36.5241 26.2748C36.3919 26.2811 36.2606 26.3012 36.1325 26.3345V26.8578C36.2303 26.8934 36.3336 26.9113 36.4377 26.9107C36.6992 26.9107 36.8237 26.8217 36.8237 26.5905C36.8237 26.3593 36.7216 26.2748 36.5241 26.2748ZM36.7485 26.9243C36.654 26.971 36.5497 26.9942 36.4444 26.9919C36.3299 26.9908 36.2163 26.9714 36.1078 26.9344V26.9705H36.0438V25.8914H36.1314V26.2533C36.2624 26.2205 36.3961 26.1997 36.5308 26.1913C36.6266 26.1847 36.7215 26.2123 36.799 26.2691C36.8414 26.3104 36.874 26.3607 36.8944 26.4163C36.9148 26.4719 36.9225 26.5315 36.9169 26.5905C36.9227 26.6569 36.9102 26.7236 36.8806 26.7833C36.8511 26.843 36.8058 26.8933 36.7497 26.9288L36.7485 26.9243Z" fill="#939598"/>
<path d="M37.0347 27.2613V27.1789C37.0784 27.1789 37.1188 27.1868 37.1469 27.1868C37.1983 27.1921 37.2499 27.1794 37.293 27.1508C37.3362 27.1222 37.3682 27.0796 37.3837 27.0301L37.4117 26.9703L37.0167 26.2114H37.1188L37.4555 26.8666H37.4611L37.7831 26.2114H37.883L37.4588 27.0639C37.436 27.1284 37.3926 27.1836 37.3354 27.2207C37.2782 27.2578 37.2103 27.2749 37.1424 27.2692C37.1049 27.2694 37.0673 27.2668 37.0302 27.2613H37.0347Z" fill="#939598"/>
<path d="M39.0995 26.5375H38.8066V26.8036H39.1017C39.3026 26.8036 39.3789 26.7811 39.3789 26.6706C39.3789 26.5601 39.2745 26.5375 39.0995 26.5375ZM39.0456 26.1067H38.8066V26.3774H39.0478C39.2465 26.3774 39.325 26.3526 39.325 26.2409C39.325 26.1293 39.2251 26.1067 39.0456 26.1067ZM39.5001 26.8961C39.3879 26.9649 39.2633 26.9683 39.0254 26.9683H38.5765V25.9387H39.0131C39.2184 25.9387 39.3441 25.9387 39.4485 26.0053C39.4831 26.026 39.5113 26.0562 39.5298 26.0923C39.5482 26.1284 39.5562 26.1689 39.5528 26.2094C39.5548 26.2597 39.54 26.3092 39.5107 26.3501C39.4814 26.391 39.4393 26.4208 39.3912 26.4349V26.4405C39.5236 26.471 39.6089 26.5386 39.6089 26.6841C39.6113 26.7259 39.6021 26.7676 39.5823 26.8044C39.5625 26.8413 39.5328 26.8718 39.4967 26.8927L39.5001 26.8961Z" fill="#939598"/>
<path d="M40.5043 26.6524C40.4156 26.6445 40.3259 26.64 40.2316 26.64C40.0779 26.64 40.024 26.6716 40.024 26.7415C40.024 26.8114 40.0689 26.8441 40.1867 26.8441C40.2938 26.84 40.4002 26.8249 40.5043 26.799V26.6524ZM40.5492 26.9704L40.5424 26.9253C40.4089 26.963 40.2715 26.9854 40.1329 26.9918C40.0541 26.996 39.9759 26.9764 39.9084 26.9354C39.8791 26.9104 39.8563 26.8785 39.8421 26.8425C39.8279 26.8066 39.8227 26.7676 39.827 26.7292C39.8314 26.6907 39.8451 26.654 39.8669 26.6221C39.8887 26.5902 39.918 26.5642 39.9522 26.5464C40.0427 26.5135 40.1389 26.4997 40.235 26.5058C40.3135 26.5058 40.4201 26.5058 40.5088 26.5171V26.5036C40.5088 26.384 40.4302 26.3457 40.2181 26.3457C40.1362 26.3457 40.0364 26.3457 39.9399 26.3592V26.2059C40.0465 26.1968 40.1643 26.1912 40.2642 26.1912C40.3858 26.1805 40.508 26.2047 40.6165 26.2611C40.6547 26.2918 40.6843 26.3319 40.7022 26.3777C40.7201 26.4234 40.7258 26.473 40.7186 26.5216V26.9727L40.5492 26.9704Z" fill="#939598"/>
<path d="M41.7005 26.9704V26.5509C41.7005 26.4133 41.6298 26.3637 41.5041 26.3637C41.4002 26.3684 41.2972 26.3843 41.1967 26.4111V26.9749H40.9812V26.216H41.1529L41.1607 26.2645C41.2922 26.2254 41.4278 26.2023 41.5647 26.1957C41.6574 26.1885 41.7494 26.2162 41.8228 26.2735C41.853 26.3045 41.876 26.3418 41.8901 26.3827C41.9043 26.4236 41.9093 26.4672 41.9047 26.5103V26.9749L41.7005 26.9704Z" fill="#939598"/>
<path d="M42.5052 26.9918C42.4052 26.9993 42.3058 26.971 42.2247 26.9118C42.1816 26.871 42.1484 26.8208 42.1276 26.7651C42.1067 26.7094 42.0989 26.6496 42.1046 26.5904C42.1006 26.5276 42.1126 26.4648 42.1395 26.408C42.1664 26.3512 42.2073 26.3022 42.2583 26.2656C42.3608 26.2081 42.4779 26.1822 42.595 26.1912C42.6814 26.1912 42.7666 26.1912 42.8609 26.2059V26.3683C42.7846 26.3604 42.6937 26.3547 42.6208 26.3547C42.4199 26.3547 42.3256 26.4179 42.3256 26.5915C42.3256 26.7652 42.3963 26.8261 42.5602 26.8261C42.6669 26.8226 42.7732 26.8098 42.8777 26.7877V26.9434C42.7569 26.9713 42.6336 26.9876 42.5097 26.9918H42.5052Z" fill="#939598"/>
<path d="M43.496 26.3501C43.2952 26.3501 43.2077 26.4133 43.2077 26.5858C43.2077 26.7583 43.2941 26.8316 43.496 26.8316C43.698 26.8316 43.7811 26.7707 43.7811 26.5971C43.7811 26.4234 43.6958 26.3501 43.496 26.3501ZM43.8574 26.914C43.7476 26.9763 43.6217 27.0042 43.496 26.994C43.3696 27.0042 43.2431 26.9763 43.1325 26.914C43.0876 26.8736 43.0517 26.8241 43.0271 26.7688C43.0026 26.7135 42.9899 26.6537 42.9899 26.5931C42.9899 26.5326 43.0026 26.4727 43.0271 26.4175C43.0517 26.3622 43.0876 26.3127 43.1325 26.2723C43.2463 26.2203 43.3699 26.1934 43.4949 26.1934C43.62 26.1934 43.7436 26.2203 43.8574 26.2723C43.9016 26.3131 43.937 26.3627 43.9611 26.4179C43.9853 26.4731 43.9978 26.5328 43.9978 26.5931C43.9978 26.6535 43.9853 26.7131 43.9611 26.7684C43.937 26.8236 43.9016 26.8732 43.8574 26.914Z" fill="#939598"/>
<path d="M45.2151 26.992C45.0838 27 44.9538 26.9622 44.8471 26.8849C44.7902 26.8298 44.7463 26.7626 44.7188 26.6883C44.6912 26.6139 44.6806 26.5343 44.6877 26.4552C44.683 26.3707 44.6996 26.2863 44.7359 26.2098C44.7722 26.1334 44.827 26.0673 44.8953 26.0177C45.0274 25.9442 45.1778 25.9105 45.3285 25.9207C45.4407 25.9207 45.5585 25.9275 45.6864 25.9388V26.1237C45.5742 26.1147 45.4429 26.1068 45.3374 26.1068C45.0457 26.1068 44.9222 26.2196 44.9222 26.4552C44.9222 26.6909 45.0345 26.8059 45.2522 26.8059C45.406 26.8002 45.559 26.7794 45.7089 26.7439V26.9266C45.5468 26.9645 45.3814 26.9864 45.2151 26.992Z" fill="#939598"/>
<path d="M46.3283 26.3255C46.1532 26.3255 46.0859 26.3898 46.0725 26.5048H46.5808C46.5741 26.3819 46.5034 26.3255 46.3283 26.3255ZM46.2969 26.9919C46.1837 27.002 46.0706 26.9721 45.9771 26.9073C45.9344 26.8672 45.9013 26.8178 45.8803 26.7629C45.8593 26.708 45.8509 26.6491 45.8559 26.5905C45.8526 26.5297 45.8637 26.4689 45.8883 26.4133C45.9129 26.3576 45.9502 26.3086 45.9973 26.2702C46.0968 26.2101 46.2125 26.1825 46.3283 26.1913C46.4422 26.1836 46.5558 26.2099 46.6549 26.2668C46.776 26.3525 46.7873 26.4856 46.7884 26.6412H46.0702C46.0702 26.754 46.1364 26.8318 46.3485 26.8318C46.4835 26.8289 46.6182 26.8161 46.7514 26.7935V26.9423C46.6014 26.9708 46.4494 26.9873 46.2969 26.9919Z" fill="#939598"/>
<path d="M47.7265 26.9704V26.5509C47.7265 26.4133 47.6558 26.3637 47.5301 26.3637C47.4263 26.3684 47.3232 26.3843 47.2227 26.4111V26.9749H47.0117V26.216H47.1834L47.1913 26.2645C47.3227 26.2254 47.4583 26.2023 47.5952 26.1957C47.6879 26.1885 47.7799 26.2162 47.8533 26.2735C47.8835 26.3045 47.9065 26.3418 47.9206 26.3827C47.9348 26.4236 47.9398 26.4672 47.9352 26.5103V26.9749L47.7265 26.9704Z" fill="#939598"/>
<path d="M48.5356 26.9919C48.4886 26.9959 48.4414 26.9876 48.3986 26.9679C48.3557 26.9481 48.3187 26.9176 48.291 26.8792C48.2497 26.8116 48.2301 26.7328 48.2349 26.6537V26.3695H48.0823V26.2116H48.2349L48.2573 25.9861H48.4447V26.2116H48.7421V26.3695H48.4447V26.6131C48.442 26.662 48.4489 26.7111 48.4649 26.7574C48.478 26.7819 48.4983 26.8017 48.523 26.8142C48.5477 26.8267 48.5756 26.8313 48.603 26.8273C48.6534 26.8267 48.7037 26.8218 48.7533 26.8126V26.9649C48.6818 26.9807 48.6089 26.9897 48.5356 26.9919Z" fill="#939598"/>
<path d="M48.9485 26.9704V26.2115H49.1202L49.128 26.2599C49.2486 26.2187 49.3745 26.1956 49.5017 26.1912H49.5286V26.3716C49.5051 26.3716 49.4759 26.3716 49.4557 26.3716C49.3557 26.3722 49.2562 26.3854 49.1594 26.4111V26.9749L48.9485 26.9704Z" fill="#939598"/>
<path d="M50.2951 26.6524C50.2065 26.6445 50.1167 26.6399 50.0225 26.6399C49.8687 26.6399 49.8149 26.6715 49.8149 26.7414C49.8149 26.8113 49.8598 26.8441 49.9776 26.8441C50.0847 26.84 50.1911 26.8249 50.2951 26.7989V26.6524ZM50.34 26.9704L50.3344 26.9252C50.2008 26.9629 50.0634 26.9852 49.9248 26.9918C49.8461 26.9961 49.7679 26.9765 49.7004 26.9354C49.6707 26.9106 49.6476 26.8788 49.6332 26.8428C49.6187 26.8069 49.6134 26.7679 49.6176 26.7293C49.6218 26.6908 49.6355 26.6539 49.6574 26.622C49.6793 26.59 49.7087 26.5641 49.743 26.5464C49.8336 26.5135 49.9298 26.4997 50.0258 26.5058C50.1055 26.5058 50.211 26.5058 50.2996 26.517V26.5035C50.2996 26.384 50.2222 26.3456 50.0101 26.3456C49.9271 26.3456 49.8272 26.3456 49.7318 26.3592V26.2058C49.8373 26.1968 49.9563 26.1911 50.0561 26.1911C50.1774 26.1806 50.2992 26.2048 50.4074 26.2611C50.4457 26.2917 50.4754 26.3318 50.4935 26.3775C50.5116 26.4232 50.5175 26.4728 50.5106 26.5215V26.9726L50.34 26.9704Z" fill="#939598"/>
<path d="M50.7765 25.8923H50.9863V26.9704H50.7765V25.8923Z" fill="#939598"/>
</g>
<defs>
<clipPath id="clip0_180_642">
<rect width="42.1154" height="15" fill="white" transform="translate(9 13)"/>
</clipPath>
</defs>
</svg>
